<svg xmlns="http://www.w3.org/2000/svg" viewBox="0 0 10.69 20.48"><defs><style>.cls-1{fill:#fff;fill-rule:evenodd;}</style></defs><g id="Capa_2" data-name="Capa 2"><g id="Capa_1-2" data-name="Capa 1"><path class="cls-1" d="M8.53,3.46c.63,0,1.27,0,1.9,0h.26V.15c-.34,0-.69-.08-1-.1C9,0,8.34,0,7.69,0A4.82,4.82,0,0,0,4.93.86,4.08,4.08,0,0,0,3.28,3.61,8.51,8.51,0,0,0,3.16,5c0,.74,0,1.48,0,2.22v.28H0v3.68H3.14v9.27H7V11.23h3.13c.16-1.23.31-2.44.48-3.7H7S7,5.7,7,4.91C7,3.82,7.66,3.49,8.53,3.46Z"/></g></g></svg>