<svg xmlns="http://www.w3.org/2000/svg" xmlns:xlink="http://www.w3.org/1999/xlink" viewBox="0 0 135 135"><defs><style>.cls-1,.cls-3{fill:#fff;}.cls-2,.cls-3{fill-rule:evenodd;}.cls-2{fill:url(#radial-gradient);}</style><radialGradient id="radial-gradient" cx="104.44" cy="799.04" r="0.14" gradientTransform="matrix(800, 0, 0, -800, -83515.33, 639352.63)" gradientUnits="userSpaceOnUse"><stop offset="0" stop-color="#5697fb"/><stop offset="0.61" stop-color="#8936f9"/><stop offset="0.93" stop-color="#dd537e"/><stop offset="1" stop-color="#e06f62"/></radialGradient></defs><g id="Capa_2" data-name="Capa 2"><g id="Graphic_Elements" data-name="Graphic Elements"><circle class="cls-1" cx="67.5" cy="67.5" r="67.5"/><g id="logo"><path id="bubble" class="cls-2" d="M67.5,17.5c-28.73,0-51,21-51,49.47a48.36,48.36,0,0,0,16,36.59,4.12,4.12,0,0,1,1.37,2.91l.27,9.07a4.09,4.09,0,0,0,5.73,3.61L50,114.68a4.07,4.07,0,0,1,2.73-.2,55.55,55.55,0,0,0,14.76,2c28.73,0,51-21,51-49.47S96.23,17.5,67.5,17.5Z"/><path id="bolt" class="cls-3" d="M36.87,81.44l15-23.77a7.65,7.65,0,0,1,11.06-2l11.91,8.93a3.06,3.06,0,0,0,3.69,0L94.61,52.34a2.43,2.43,0,0,1,3.52,3.22l-15,23.77a7.65,7.65,0,0,1-11.06,2L60.17,72.44a3.06,3.06,0,0,0-3.69,0L40.39,84.66A2.43,2.43,0,0,1,36.87,81.44Z"/></g></g></g></svg>