<svg xmlns="http://www.w3.org/2000/svg" viewBox="0 0 20.58 20.58"><defs><style>.cls-1{fill:#fff;}</style></defs><g id="Capa_2" data-name="Capa 2"><g id="Capa_1-2" data-name="Capa 1"><path class="cls-1" d="M10.29,0A10.29,10.29,0,1,0,20.58,10.29,10.31,10.31,0,0,0,10.29,0Zm6.65,5a8.5,8.5,0,0,1,1.82,4.76A15.57,15.57,0,0,0,13,9.68c-.21-.5-.43-1-.65-1.42A12.34,12.34,0,0,0,16.94,5ZM15.66,3.73a10.45,10.45,0,0,1-4.17,2.93c-.18-.32-.36-.62-.53-.91A29.83,29.83,0,0,0,8.31,2a8.59,8.59,0,0,1,2-.23A8.43,8.43,0,0,1,15.66,3.73Zm-9.18-1A26.48,26.48,0,0,1,9.74,7.26a26.9,26.9,0,0,1-7.67.93A8.59,8.59,0,0,1,6.48,2.71ZM1.81,10.29a2.81,2.81,0,0,1,0-.29h.77a30.49,30.49,0,0,0,5-.41,22.4,22.4,0,0,0,3-.71c.19.4.38.81.57,1.24a13.26,13.26,0,0,0-4.13,2.25,14.9,14.9,0,0,0-3.14,3.5A8.47,8.47,0,0,1,1.81,10.29Zm3.46,6.83A13,13,0,0,1,8.19,13.8a11.31,11.31,0,0,1,3.68-2,28.28,28.28,0,0,1,1.53,6.38,8.47,8.47,0,0,1-8.13-1.06Zm9.83.15a30.27,30.27,0,0,0-1.46-5.88,13.94,13.94,0,0,1,5,.22A8.5,8.5,0,0,1,15.1,17.27Z"/></g></g></svg>