<svg xmlns="http://www.w3.org/2000/svg" viewBox="0 0 18.48 18.47"><defs><style>.cls-1{fill:#fff;}</style></defs><g id="Capa_2" data-name="Capa 2"><g id="Capa_1-2" data-name="Capa 1"><path class="cls-1" d="M18.33,4.63a4.9,4.9,0,0,0-1.49-3.15A5.14,5.14,0,0,0,13.45.1,67.24,67.24,0,0,0,4.31.21a4.65,4.65,0,0,0-4,3.59C-.13,5.37,0,12.61.21,14.17a4.68,4.68,0,0,0,3.72,4,54.53,54.53,0,0,0,10.23.07,4.7,4.7,0,0,0,4-3.7C18.63,13,18.48,6.09,18.33,4.63Zm-1.7,9.24a3.14,3.14,0,0,1-2.94,2.79c-1.49.16-8.15.25-9.53-.13a3,3,0,0,1-2.3-2.61,61.75,61.75,0,0,1,0-9.33A3.12,3.12,0,0,1,4.78,1.81a65.75,65.75,0,0,1,9.1,0,3.14,3.14,0,0,1,2.79,2.94A67.18,67.18,0,0,1,16.63,13.87ZM9.24,4.5A4.74,4.74,0,1,0,14,9.24,4.74,4.74,0,0,0,9.24,4.5Zm0,7.8a3.07,3.07,0,1,1,3.09-3A3.08,3.08,0,0,1,9.21,12.3Zm6.06-8a1.11,1.11,0,1,1-1.1-1.11A1.11,1.11,0,0,1,15.27,4.32Z"/><path class="cls-1" d="M18.33,4.63a4.9,4.9,0,0,0-1.49-3.15A5.14,5.14,0,0,0,13.45.1,67.24,67.24,0,0,0,4.31.21a4.65,4.65,0,0,0-4,3.59C-.13,5.37,0,12.61.21,14.17a4.68,4.68,0,0,0,3.72,4,54.53,54.53,0,0,0,10.23.07,4.7,4.7,0,0,0,4-3.7C18.63,13,18.48,6.09,18.33,4.63Zm-1.7,9.24a3.14,3.14,0,0,1-2.94,2.79c-1.49.16-8.15.25-9.53-.13a3,3,0,0,1-2.3-2.61,61.75,61.75,0,0,1,0-9.33A3.12,3.12,0,0,1,4.78,1.81a65.75,65.75,0,0,1,9.1,0,3.14,3.14,0,0,1,2.79,2.94A67.18,67.18,0,0,1,16.63,13.87ZM9.24,4.5A4.74,4.74,0,1,0,14,9.24,4.74,4.74,0,0,0,9.24,4.5Zm0,7.8a3.07,3.07,0,1,1,3.09-3A3.08,3.08,0,0,1,9.21,12.3Zm6.06-8a1.11,1.11,0,1,1-1.1-1.11A1.11,1.11,0,0,1,15.27,4.32Z"/></g></g></svg>