<svg xmlns="http://www.w3.org/2000/svg" viewBox="0 0 19.54 18.36"><defs><style>.cls-1{fill:#fff;}</style></defs><g id="Capa_2" data-name="Capa 2"><g id="Capa_1-2" data-name="Capa 1"><path class="cls-1" d="M17.47,3.31h-.14V3.13a.91.91,0,1,0-1.81,0V3.3H14V1a.91.91,0,0,0-1-1H6.56a.92.92,0,0,0-1,1V3.3H4V3.16a.9.9,0,1,0-1.8,0v.16a1.77,1.77,0,0,0-.4,0A2,2,0,0,0,0,5L0,16.53l0,.14c0,.07.05.15.08.23a3,3,0,0,0,.28.61A1.91,1.91,0,0,0,2,18.35H17.41a2,2,0,0,0,1.91-1.14,2.2,2.2,0,0,0,.21-.91q0-5.47,0-10.94A2,2,0,0,0,17.47,3.31Zm-10.1,0V1.82h4.79V3.3ZM1.81,5.41c0-.24.05-.29.29-.29H17.38c.31,0,.35,0,.35.35V6c0,.47,0,.93,0,1.4L11.91,8.81l-.15,0H8.57a6.31,6.31,0,0,1-1.79-.22L2.05,7.43,1.8,7.37c0-.45,0-.91,0-1.36Zm8.86,5.23h.39v1.48H8.48V10.65h.39a1.21,1.21,0,0,0,.29.86,1,1,0,0,0,.61.23C10.34,11.73,10.64,11.36,10.67,10.64ZM1.81,9.23,4,9.78l2.63.65c0,.68,0,1.35,0,2v.48a.91.91,0,0,0,1,1h4.21a.91.91,0,0,0,1-1V10.43l3.88-1,1-.24v7c0,.3,0,.34-.35.34H2.16c-.32,0-.35,0-.35-.35Z"/></g></g></svg>