<svg xmlns="http://www.w3.org/2000/svg" viewBox="0 0 16.63 19.83"><defs><style>.cls-1{fill:#fff;}</style></defs><g id="Capa_2" data-name="Capa 2"><g id="Capa_1-2" data-name="Capa 1"><path class="cls-1" d="M14.08,19.83H2.56A2.56,2.56,0,0,1,0,17.27L1.11,7.88A2.53,2.53,0,0,1,3.66,5.4H13A2.56,2.56,0,0,1,15.54,8l1.09,9.23A2.57,2.57,0,0,1,14.08,19.83ZM3.66,6.79A1.16,1.16,0,0,0,2.5,8L1.39,17.35a1.16,1.16,0,0,0,1.17,1.09H14.08a1.17,1.17,0,0,0,1.16-1.17L14.15,8A1.2,1.2,0,0,0,13,6.79Z"/><path class="cls-1" d="M5.83,10A1.49,1.49,0,1,1,7.32,8.47,1.48,1.48,0,0,1,5.83,10Zm0-1.58v.19l.1-.09A.09.09,0,0,0,5.83,8.37Z"/><path class="cls-1" d="M10.8,10a1.49,1.49,0,0,1,0-3,1.49,1.49,0,1,1,0,3Zm0-1.58v.19l.1-.09A.1.1,0,0,0,10.8,8.37Z"/><path class="cls-1" d="M11.5,8.47H10.1V2.79a1.85,1.85,0,0,0-1.78-1.4h0a1.89,1.89,0,0,0-1.76,1.4V8.47H5.14V2.56A3.28,3.28,0,0,1,8.28,0h0a3.25,3.25,0,0,1,3.16,2.56l0,.15Z"/></g></g></svg>