<svg xmlns="http://www.w3.org/2000/svg" viewBox="0 0 19.21 19.31"><defs><style>.cls-1{fill:#fff;fill-rule:evenodd;}</style></defs><g id="Capa_2" data-name="Capa 2"><g id="Capa_1-2" data-name="Capa 1"><path class="cls-1" d="M0,19.31c.11-.41.2-.78.3-1.14.32-1.16.64-2.32.94-3.48a.83.83,0,0,0-.05-.56,9.58,9.58,0,1,1,4.13,4,1,1,0,0,0-.58-.06C2.2,18.74.51,19.21,0,19.31Zm2.23-2.2c1-.24,1.83-.46,2.7-.71a.77.77,0,0,1,.66.1,7.87,7.87,0,0,0,5.3,1,8,8,0,1,0-8.25-4.05A1.66,1.66,0,0,1,2.82,15C2.58,15.65,2.44,16.35,2.23,17.11Z"/><path class="cls-1" d="M12.13,14.17c-1.87-.06-4.85-1.54-6.89-5.08A2.9,2.9,0,0,1,5.68,5.4a1.35,1.35,0,0,1,1.23-.18c.11,0,.22.18.27.29.27.62.54,1.24.77,1.88.13.33-.1.64-.58,1.2a.42.42,0,0,0-.07.55A6.53,6.53,0,0,0,10.62,12a.4.4,0,0,0,.51-.14c.76-.93.84-1.2,1.24-1,1.94.92,2.09,1,2.1,1.18A2.11,2.11,0,0,1,12.13,14.17Z"/></g></g></svg>