<svg xmlns="http://www.w3.org/2000/svg" viewBox="0 0 105.93 87.98"><defs><style>.cls-1{fill:#4d4d4c;}.cls-2{fill:#e6a482;}.cls-3{fill:#e5a582;}.cls-4{fill:#fdc9af;}</style></defs><g id="Capa_2" data-name="Capa 2"><g id="Capa_1-2" data-name="Capa 1"><path class="cls-1" d="M37.07,79.77a7.06,7.06,0,0,0-.5-1,38.13,38.13,0,0,1-6.51-18.85c-1-12.21.5-24.1,5.28-35.45a68.15,68.15,0,0,1,14-21.19c1.06-1.1,2.31-2,3.44-3,.4-.36.69-.32,1.12,0A31.53,31.53,0,0,1,62.74,10c.91,1.52,1.79,3.06,2.74,4.69l-3.73,1.82q-4.11-5.51-8.23-11l-.75.48a24.51,24.51,0,0,0-6.09,6.51,72.16,72.16,0,0,0-9.46,21.18,79,79,0,0,0-3,16.43,41.86,41.86,0,0,0,1,13.3c.43,1.65,1.09,3.24,1.64,4.86l.22-.06.25-1.35c1.63-9.4,4.14-18.52,9-26.83,7.11-12.17,17.84-19.27,31.45-22.2a43.76,43.76,0,0,1,19.58.66c2.82.68,5.61,1.52,8.58,2.32C104.87,22,104,23,103,24.09a39.53,39.53,0,0,0-6.39,9,48.36,48.36,0,0,0-4.09,13.23C91.7,51,91,55.66,90,60.29A52.62,52.62,0,0,1,86.3,71.6,24.07,24.07,0,0,1,72.51,84.28,52.92,52.92,0,0,1,54.12,88,52.08,52.08,0,0,1,32.87,84c-6.85-2.87-11.49-8-14.33-14.76A62.56,62.56,0,0,1,14.89,56c-.93-5.14-1.72-10.3-2.84-15.39A37,37,0,0,0,2.4,23.13C1.59,22.27.82,21.36,0,20.44a49.28,49.28,0,0,1,32-2,16.1,16.1,0,0,1-1.46,4.25,59.12,59.12,0,0,0-10.85-1.15A76.42,76.42,0,0,0,12,22c-1.46.14-2.9.51-4.47.79l.5.71A38.72,38.72,0,0,1,13,32,83.58,83.58,0,0,1,17.8,48.81,139.73,139.73,0,0,0,22,66a21.62,21.62,0,0,0,9.08,12.09,23.84,23.84,0,0,0,7.37,3.12Zm32.55.82.16-.08a.87.87,0,0,0,.22-.05A25.27,25.27,0,0,0,81.64,70.35a39.93,39.93,0,0,0,4.45-12.5c.91-4.22,1.49-8.51,2.39-12.73C90.16,37.26,93,29.9,98.14,23.58c.09-.1.06-.3.08-.45a5.52,5.52,0,0,0-1.4-.69,59.25,59.25,0,0,0-13.69-.94,41.07,41.07,0,0,0-8.26,1.29A39.27,39.27,0,0,0,51.76,39.92,61.47,61.47,0,0,0,43.5,60.41,23.9,23.9,0,0,0,45.08,76.2c1.42,3,3.46,5.25,6.86,6a28.73,28.73,0,0,0,11.93.15c1.86-.39,3.66-1.1,5.48-1.66Z"></path><path class="cls-2" d="M37.07,79.77l1.42,1.48a23.84,23.84,0,0,1-7.37-3.12A21.62,21.62,0,0,1,22,66,139.73,139.73,0,0,1,17.8,48.81,83.58,83.58,0,0,0,13,32a38.72,38.72,0,0,0-5-8.47l-.5-.71c1.57-.28,3-.65,4.47-.79a76.42,76.42,0,0,1,7.7-.43,59.12,59.12,0,0,1,10.85,1.15c-.22,1.14-.47,2.27-.66,3.42-.59,3.56-1.2,7.11-1.71,10.68a79,79,0,0,0-.69,13.66,67.91,67.91,0,0,0,1.21,11.27,43.18,43.18,0,0,0,4.78,13.35,48.82,48.82,0,0,0,2.93,4.16A2.93,2.93,0,0,0,37.07,79.77Z"></path><path class="cls-3" d="M37.32,66.77l-.25,1.35-.22.06c-.55-1.62-1.21-3.21-1.64-4.86a41.86,41.86,0,0,1-1-13.3,79,79,0,0,1,3-16.43,72.16,72.16,0,0,1,9.46-21.18A24.51,24.51,0,0,1,52.77,5.9l.75-.48q4.13,5.55,8.23,11c-1.64,1.2-3.34,2.33-4.92,3.6a42.55,42.55,0,0,0-7.06,7.32,56.1,56.1,0,0,0-8,14.55A66.67,66.67,0,0,0,38.1,56.1c-.4,2.8-.7,5.62-1,8.44A11.26,11.26,0,0,0,37.32,66.77Z"></path><path class="cls-2" d="M69.35,80.66c-1.82.56-3.62,1.27-5.48,1.66a28.73,28.73,0,0,1-11.93-.15c-3.4-.72-5.44-3-6.86-6A23.9,23.9,0,0,1,43.5,60.41a61.47,61.47,0,0,1,8.26-20.49A39.27,39.27,0,0,1,74.87,22.79a41.07,41.07,0,0,1,8.26-1.29,59.25,59.25,0,0,1,13.69.94,5.52,5.52,0,0,1,1.4.69c-2.1.92-4.3,1.68-6.3,2.8a32.74,32.74,0,0,0-9.65,8.28,44.35,44.35,0,0,0-5.72,9.16c-1.12,2.41-2.08,4.91-3.08,7.38a121.68,121.68,0,0,0-4.79,14.17A35.83,35.83,0,0,0,67,76.28,5,5,0,0,0,68.45,80C68.73,80.22,69.05,80.43,69.35,80.66Z"></path><path class="cls-4" d="M69.35,80.66c-.3-.23-.62-.44-.9-.7A5,5,0,0,1,67,76.28a35.83,35.83,0,0,1,1.68-11.36,121.68,121.68,0,0,1,4.79-14.17c1-2.47,2-5,3.08-7.38a44.35,44.35,0,0,1,5.72-9.16,32.74,32.74,0,0,1,9.65-8.28c2-1.12,4.2-1.88,6.3-2.8,0,.15,0,.35-.08.45-5.13,6.32-8,13.68-9.66,21.54-.9,4.22-1.48,8.51-2.39,12.73a39.93,39.93,0,0,1-4.45,12.5A25.27,25.27,0,0,1,70,80.46a.87.87,0,0,1-.22.05l-.16.08Z"></path><path class="cls-2" d="M69.62,80.59l.16-.08Z"></path></g></g></svg>